<?xml version="1.0" encoding="UTF-8" standalone="no"?>
<!DOCTYPE svg PUBLIC "-//W3C//DTD SVG 1.1//EN"
 "http://www.w3.org/Graphics/SVG/1.1/DTD/svg11.dtd">
<!-- Generated by graphviz version 5.0.0 (20220707.1540)
 -->
<!-- Title: dependencies Pages: 1 -->
<svg width="614pt" height="247pt"
 viewBox="0.00 0.00 614.00 246.80" xmlns="http://www.w3.org/2000/svg" xmlns:xlink="http://www.w3.org/1999/xlink">
<g id="graph0" class="graph" transform="scale(1 1) rotate(0) translate(4 242.8)">
<title>dependencies</title>
<polygon fill="white" stroke="transparent" points="-4,4 -4,-242.8 610,-242.8 610,4 -4,4"/>
<text text-anchor="middle" x="303" y="-8.2" font-family="sans-serif" font-size="14.00">dependencies</text>
<g id="clust1" class="cluster">
<title>cluster_AppModule</title>
<polygon fill="none" stroke="black" stroke-dasharray="1,5" points="8,-32.8 8,-230.8 598,-230.8 598,-32.8 8,-32.8"/>
</g>
<g id="clust6" class="cluster">
<title>cluster_AppModule_imports</title>
<polygon fill="none" stroke="black" points="446,-40.8 446,-92.8 590,-92.8 590,-40.8 446,-40.8"/>
</g>
<g id="clust8" class="cluster">
<title>cluster_AppModule_bootstrap</title>
<polygon fill="none" stroke="black" points="249,-170.8 249,-222.8 373,-222.8 373,-170.8 249,-170.8"/>
</g>
<g id="clust2" class="cluster">
<title>cluster_AppModule_declarations</title>
<polygon fill="none" stroke="black" points="16,-40.8 16,-92.8 438,-92.8 438,-40.8 16,-40.8"/>
</g>
<!-- AppComponent -->
<g id="node1" class="node">
<title>AppComponent</title>
<polygon fill="#ffffb3" stroke="black" points="429.94,-84.8 324.06,-84.8 324.06,-48.8 429.94,-48.8 429.94,-84.8"/>
<text text-anchor="middle" x="377" y="-62.6" font-family="Times,serif" font-size="14.00">AppComponent</text>
</g>
<!-- AppModule -->
<g id="node4" class="node">
<title>AppModule</title>
<polygon fill="#8dd3c7" stroke="black" points="352.66,-149.8 349.66,-153.8 328.66,-153.8 325.66,-149.8 269.34,-149.8 269.34,-113.8 352.66,-113.8 352.66,-149.8"/>
<text text-anchor="middle" x="311" y="-127.6" font-family="Times,serif" font-size="14.00">AppModule</text>
</g>
<!-- AppComponent&#45;&gt;AppModule -->
<g id="edge1" class="edge">
<title>AppComponent&#45;&gt;AppModule</title>
<path fill="none" stroke="black" d="M338.56,-84.91C338.56,-84.91 338.56,-103.79 338.56,-103.79"/>
<polygon fill="black" stroke="black" points="335.06,-103.79 338.56,-113.79 342.06,-103.79 335.06,-103.79"/>
</g>
<!-- NavbarComponent -->
<g id="node2" class="node">
<title>NavbarComponent</title>
<polygon fill="#ffffb3" stroke="black" points="306.03,-84.8 183.97,-84.8 183.97,-48.8 306.03,-48.8 306.03,-84.8"/>
<text text-anchor="middle" x="245" y="-62.6" font-family="Times,serif" font-size="14.00">NavbarComponent</text>
</g>
<!-- NavbarComponent&#45;&gt;AppModule -->
<g id="edge2" class="edge">
<title>NavbarComponent&#45;&gt;AppModule</title>
<path fill="none" stroke="black" d="M287.72,-84.91C287.72,-84.91 287.72,-103.79 287.72,-103.79"/>
<polygon fill="black" stroke="black" points="284.22,-103.79 287.72,-113.79 291.22,-103.79 284.22,-103.79"/>
</g>
<!-- PersonListComponent -->
<g id="node3" class="node">
<title>PersonListComponent</title>
<polygon fill="#ffffb3" stroke="black" points="165.72,-84.8 24.28,-84.8 24.28,-48.8 165.72,-48.8 165.72,-84.8"/>
<text text-anchor="middle" x="95" y="-62.6" font-family="Times,serif" font-size="14.00">PersonListComponent</text>
</g>
<!-- PersonListComponent&#45;&gt;AppModule -->
<g id="edge3" class="edge">
<title>PersonListComponent&#45;&gt;AppModule</title>
<path fill="none" stroke="black" d="M95,-84.91C95,-104.14 95,-131.8 95,-131.8 95,-131.8 259.1,-131.8 259.1,-131.8"/>
<polygon fill="black" stroke="black" points="259.1,-135.3 269.1,-131.8 259.1,-128.3 259.1,-135.3"/>
</g>
<!-- AppComponent  -->
<g id="node6" class="node">
<title>AppComponent </title>
<polygon fill="#80b1d3" stroke="black" points="365.44,-214.8 256.56,-214.8 256.56,-178.8 365.44,-178.8 365.44,-214.8"/>
<text text-anchor="middle" x="311" y="-192.6" font-family="Times,serif" font-size="14.00">AppComponent </text>
</g>
<!-- AppModule&#45;&gt;AppComponent  -->
<g id="edge5" class="edge">
<title>AppModule&#45;&gt;AppComponent </title>
<path fill="none" stroke="black" stroke-dasharray="1,5" d="M311,-149.91C311,-149.91 311,-168.79 311,-168.79"/>
<polygon fill="black" stroke="black" points="307.5,-168.79 311,-178.79 314.5,-168.79 307.5,-168.79"/>
</g>
<!-- AppRoutingModule -->
<g id="node5" class="node">
<title>AppRoutingModule</title>
<polygon fill="#8dd3c7" stroke="black" points="582.28,-84.8 579.28,-88.8 558.28,-88.8 555.28,-84.8 453.72,-84.8 453.72,-48.8 582.28,-48.8 582.28,-84.8"/>
<text text-anchor="middle" x="518" y="-62.6" font-family="Times,serif" font-size="14.00">AppRoutingModule</text>
</g>
<!-- AppRoutingModule&#45;&gt;AppModule -->
<g id="edge4" class="edge">
<title>AppRoutingModule&#45;&gt;AppModule</title>
<path fill="none" stroke="black" d="M518,-84.91C518,-104.14 518,-131.8 518,-131.8 518,-131.8 362.89,-131.8 362.89,-131.8"/>
<polygon fill="black" stroke="black" points="362.89,-128.3 352.89,-131.8 362.89,-135.3 362.89,-128.3"/>
</g>
</g>
</svg>
